<?xml version="1.0" encoding="UTF-8"?>
<svg width="94px" height="128px" viewBox="0 0 94 128" version="1.1" xmlns="http://www.w3.org/2000/svg" xmlns:xlink="http://www.w3.org/1999/xlink">
    <!-- Generator: Sketch 55 (78076) - https://sketchapp.com -->
    <title>Group 12</title>
    <desc>Created with Sketch.</desc>
    <defs>
        <linearGradient x1="-0.0035707201%" y1="49.9926829%" x2="99.9932553%" y2="49.9926829%" id="linearGradient-1">
            <stop stop-color="#FFFFFF" offset="0%"></stop>
            <stop stop-color="#26A2A0" offset="99.77%"></stop>
        </linearGradient>
        <linearGradient x1="64.8771185%" y1="7.19912252%" x2="27.4597157%" y2="102.691898%" id="linearGradient-2">
            <stop stop-color="#FFFFFF" offset="0%"></stop>
            <stop stop-color="#26A2A0" offset="88.32%"></stop>
        </linearGradient>
        <linearGradient x1="49.4452953%" y1="99.7338178%" x2="50.0108656%" y2="51.1423965%" id="linearGradient-3">
            <stop stop-color="#FFFFFF" offset="0%"></stop>
            <stop stop-color="#26A2A0" offset="99.77%"></stop>
        </linearGradient>
        <linearGradient x1="43.8203532%" y1="109.523157%" x2="61.4118409%" y2="2.66210046%" id="linearGradient-4">
            <stop stop-color="#FFFFFF" offset="0%"></stop>
            <stop stop-color="#26A2A0" offset="99.77%"></stop>
        </linearGradient>
        <linearGradient x1="61.3068551%" y1="87.4859357%" x2="41.7288654%" y2="-1.28099885%" id="linearGradient-5">
            <stop stop-color="#26A2A0" offset="13.7%"></stop>
            <stop stop-color="#FFFFFF" offset="100%"></stop>
        </linearGradient>
    </defs>
    <g id="Page-1" stroke="none" stroke-width="1" fill="none" fill-rule="evenodd">
        <g id="Desktop-HD-Copy-12" transform="translate(-673.000000, -221.000000)">
            <g id="Group-12" transform="translate(673.000000, 221.000000)">
                <g id="未命名-1" fill-rule="nonzero">
                    <g id="Group">
                        <g>
                            <path d="M50.6505993,0.730901229 C49.445403,0.641568856 48.2240296,0.592842108 46.9945675,0.592842108 C37.3125542,0.592842108 28.3099805,3.54893152 20.8442342,8.60839225 C15.3682751,16.274734 12.1409373,25.6627542 12.1409373,35.797918 C12.1409373,36.4313657 12.1490259,37.0566923 12.1813802,37.6738978 C12.5696313,47.4679742 15.966829,56.5067861 21.4832309,63.856404 C18.4904615,59.1461516 16.7595084,53.5588178 16.7595084,47.5735489 C16.7595084,33.9300593 25.7701708,22.3574565 38.1294994,18.548649 C38.1294994,18.548649 38.1294994,18.5405278 38.1214108,18.5405278 C49.3645173,15.2758357 61.8047316,16.2260073 72.8537125,22.1057016 C73.3552036,22.3736987 73.8566947,22.649817 74.3581858,22.9421775 C83.2717854,28.1153339 89.8477894,35.8141602 93.6898582,44.6337017 C92.2500934,21.2611046 73.8081633,2.5256698 50.6505993,0.730901229 Z M34.8455417,19.6125163 C35.8970552,19.2227023 36.9647459,18.8653728 38.0405252,18.5567701 C36.9647459,18.8653728 35.8970552,19.2227023 34.8455417,19.6125163 Z" id="Shape" fill="url(#linearGradient-1)"></path>
                            <path d="M93.6817696,44.6174594 C89.8397008,35.8060391 83.2636968,28.0990917 74.3500972,22.9259352 C73.8566947,22.6416958 73.3552036,22.3574565 72.845624,22.0894594 C62.0393,16.339703 49.8983627,15.3001991 38.8412932,18.3212575 C38.8412932,18.3212575 38.8412932,18.3293786 38.8493817,18.3293786 C41.4377228,17.5984774 44.1716581,17.2005422 46.986479,17.2005422 C63.6570132,17.2005422 77.2296267,30.8196685 77.2296267,47.5654277 C77.2296267,49.9530384 76.9465269,52.267559 76.4207701,54.5008683 C76.4450358,54.5089894 76.4612129,54.5171105 76.4854786,54.5252317 C73.7191891,65.6998993 66.884351,75.8513053 56.6280495,82.5106276 C55.9566985,82.9410472 55.277259,83.3552246 54.5897309,83.7612808 C45.7165741,88.9100739 35.8404352,90.7779326 26.3606361,89.7546709 C32.5807432,92.824456 39.5773527,94.5542556 46.986479,94.5542556 C63.139345,94.5542556 77.3833094,86.3356773 85.7873293,73.8291452 C90.8345944,66.3333471 93.7707438,57.2945352 93.7707438,47.5735489 C93.7788324,46.5746505 93.7464781,45.5919944 93.6817696,44.6174594 Z" id="Path" fill="url(#linearGradient-2)"></path>
                            <path d="M76.2509102,55.2398906 C72.8537125,68.282417 61.0282293,77.9303132 46.986479,77.9303132 C41.025206,77.9303132 35.4683612,76.1842714 30.776993,73.1875764 L30.776993,73.1875764 C27.0562527,70.7999657 23.8774464,67.6246059 21.499408,63.8888885 C21.499408,63.8888885 21.4913194,63.8807674 21.4913194,63.8726463 C21.4913194,63.8726463 21.4913194,63.8726463 21.4913194,63.8645251 C21.4913194,63.856404 21.4913194,63.856404 21.4832309,63.856404 C15.9749175,56.5067861 12.5696313,47.4679742 12.1813802,37.6738978 C12.1571145,37.0485712 12.1409373,36.4232446 12.1409373,35.797918 C12.1409373,25.6627542 15.3682751,16.274734 20.8442342,8.60839225 C8.38784278,17.054362 0.202214146,31.3475416 0.202214146,47.5735489 C0.202214146,54.7607443 1.81183875,61.5743679 4.68327962,67.6652115 C9.2128765,77.264381 16.8808369,85.076903 26.3687246,89.7546709 C35.8485238,90.7779326 45.7246627,88.9100739 54.5978194,83.7612808 C55.2934361,83.3552246 55.9728756,82.9410472 56.636138,82.5106276 C66.6659597,75.9974855 73.4280007,66.1465612 76.3075302,55.2561329 C76.291353,55.2480118 76.2670873,55.2480118 76.2509102,55.2398906 Z" id="Path" fill="url(#linearGradient-3)"></path>
                        </g>
                        <g transform="translate(33.971977, 26.799712)" id="Path">
                            <path d="M23.8450921,0.462904111 L23.8450921,25.906388 C23.8450921,32.484499 18.5389929,37.8119569 11.9953431,37.8119569 L11.979166,37.8119569 C9.95702455,37.8119569 8.04812301,37.300326 6.38996702,36.3988812 C10.4504271,34.5147802 13.2733365,30.3811277 13.2733365,25.5896641 L13.2733365,8.10488251 C13.5645249,3.83317089 17.1073168,0.462904111 21.442788,0.462904111 L23.8450921,0.462904111 Z" fill="url(#linearGradient-4)"></path>
                            <path d="M13.265248,8.10488251 L13.265248,25.5896641 C13.265248,30.3811277 10.4423385,34.5066591 6.38187845,36.3988812 C2.66113816,34.3929634 0.137505619,30.4460967 0.137505619,25.906388 L0.137505619,19.7993022 L4.64283679,19.7993022 C6.32525849,19.7993022 7.8378203,20.4814767 8.93786526,21.5859496 C10.0379102,22.6904226 10.7173497,24.217194 10.7173497,25.8982669 C10.7173497,26.2474752 10.8548554,26.5723202 11.0894238,26.7915906 C11.3159036,27.0189821 11.6394462,27.1651623 11.979166,27.1651623 C12.6747827,27.1651623 13.2409823,26.5966836 13.2409823,25.8982669 L13.2409823,8.67336125 C13.2490709,8.48657538 13.2490709,8.29978951 13.265248,8.10488251 Z" fill="url(#linearGradient-5)"></path>
                        </g>
                    </g>
                </g>
                <text id="NextJOB" font-family="ArialRoundedMTBold, Arial Rounded MT Bold" font-size="19" font-weight="normal" letter-spacing="1.44983635" fill="#06B5B3">
                    <tspan x="1" y="124">NextJOB</tspan>
                </text>
            </g>
        </g>
    </g>
</svg>