<?xml version="1.0" encoding="UTF-8"?>
<svg width="30px" height="30px" viewBox="0 0 30 30" version="1.1" xmlns="http://www.w3.org/2000/svg" xmlns:xlink="http://www.w3.org/1999/xlink">
    <!-- Generator: Sketch 55 (78076) - https://sketchapp.com -->
    <title>Shape</title>
    <desc>Created with Sketch.</desc>
    <g id="Page-1" stroke="none" stroke-width="1" fill="none" fill-rule="evenodd">
        <g id="W_AN_01-5-Index-XL" transform="translate(-1151.000000, -288.000000)" fill="#06B5B3" fill-rule="nonzero">
            <g id="card/announcemnet/message/xl/unread-" transform="translate(244.000000, 215.000000)">
                <path d="M922,103 C913.736973,103 907,96.3002481 907,88 C907,79.6997519 913.699752,73 922,73 C930.300248,73 937,79.6997519 937,88 C937,96.3002481 930.263027,103 922,103 Z M922,75.2704715 C914.965261,75.2704715 909.270471,80.9652605 909.270471,88 C909.270471,95.0347395 914.965261,100.729529 922,100.729529 C929.034739,100.729529 934.729529,95.0347395 934.729529,88 C934.729529,80.9652605 929.034739,75.2704715 922,75.2704715 Z M922.818859,94.0297767 C922.781638,94.0297767 922.781638,94.0297767 922.818859,94.0297767 C922.595533,94.2531017 922.334988,94.3647643 922,94.3647643 C921.627792,94.3647643 921.330025,94.17866 921.1067,93.9181141 L917.459057,90.3076923 C917.012407,89.8610422 917.012407,89.1538462 917.459057,88.707196 C917.905707,88.2605459 918.612903,88.2605459 919.059553,88.707196 L920.846154,90.4937965 L920.846154,82.751861 C920.846154,82.1191067 921.367246,81.6352357 921.962779,81.6352357 C922.595533,81.6352357 923.079404,82.1563275 923.079404,82.751861 L923.079404,90.5310174 L924.903226,88.707196 C925.349876,88.2605459 926.057072,88.2605459 926.503722,88.707196 C926.950372,89.1538462 926.950372,89.8610422 926.503722,90.3076923 L922.818859,94.0297767 Z" id="Shape" transform="translate(922.000000, 88.000000) rotate(-90.000000) translate(-922.000000, -88.000000) "></path>
            </g>
        </g>
    </g>
</svg>